<mxfile host="app.diagrams.net" modified="2021-06-21T10:51:50.368Z" agent="5.0 (Macintosh; Intel Mac OS X 10_15_7) AppleWebKit/537.36 (KHTML, like Gecko) Chrome/91.0.4472.106 Safari/537.36" etag="nKj9TBFDP0U6wkU9HE8H" version="14.7.9" type="github">
  <diagram id="Z6FLblsqwEbZB8-MIEmX" name="Page-1">
    <mxGraphModel dx="1426" dy="799" grid="1" gridSize="10" guides="1" tooltips="1" connect="1" arrows="1" fold="1" page="1" pageScale="1" pageWidth="850" pageHeight="1100" math="0" shadow="0">
      <root>
        <mxCell id="0" />
        <mxCell id="1" parent="0" />
        <mxCell id="WztenFOhFq88HhkXIFKB-1" value="AppContext.swift" style="rounded=1;whiteSpace=wrap;html=1;" vertex="1" parent="1">
          <mxGeometry x="760" y="30" width="120" height="60" as="geometry" />
        </mxCell>
        <mxCell id="WztenFOhFq88HhkXIFKB-3" value="spatialDataContext" style="rounded=1;whiteSpace=wrap;html=1;" vertex="1" parent="1">
          <mxGeometry x="960" y="180" width="120" height="60" as="geometry" />
        </mxCell>
        <mxCell id="WztenFOhFq88HhkXIFKB-4" value="cloudkeyValueStore" style="rounded=1;whiteSpace=wrap;html=1;" vertex="1" parent="1">
          <mxGeometry x="630" y="220" width="120" height="60" as="geometry" />
        </mxCell>
        <mxCell id="WztenFOhFq88HhkXIFKB-5" value="DeviceMotionManager&lt;br&gt;.shared" style="rounded=1;whiteSpace=wrap;html=1;" vertex="1" parent="1">
          <mxGeometry x="740" y="230" width="120" height="60" as="geometry" />
        </mxCell>
        <mxCell id="WztenFOhFq88HhkXIFKB-6" value="audioEngine" style="rounded=1;whiteSpace=wrap;html=1;" vertex="1" parent="1">
          <mxGeometry x="550" y="100" width="120" height="60" as="geometry" />
        </mxCell>
        <mxCell id="WztenFOhFq88HhkXIFKB-7" value="commandProcessor" style="rounded=1;whiteSpace=wrap;html=1;" vertex="1" parent="1">
          <mxGeometry x="320" y="220" width="120" height="60" as="geometry" />
        </mxCell>
        <mxCell id="WztenFOhFq88HhkXIFKB-8" value="geolocationManager" style="rounded=1;whiteSpace=wrap;html=1;" vertex="1" parent="1">
          <mxGeometry x="750" y="110" width="120" height="60" as="geometry" />
        </mxCell>
        <mxCell id="WztenFOhFq88HhkXIFKB-12" value="eventProcessor" style="rounded=1;whiteSpace=wrap;html=1;" vertex="1" parent="1">
          <mxGeometry x="1120" y="190" width="120" height="60" as="geometry" />
        </mxCell>
        <mxCell id="WztenFOhFq88HhkXIFKB-13" value="deviceManager" style="rounded=1;whiteSpace=wrap;html=1;" vertex="1" parent="1">
          <mxGeometry x="1270" y="230" width="120" height="60" as="geometry" />
        </mxCell>
        <mxCell id="WztenFOhFq88HhkXIFKB-14" value="pushNotification&lt;br&gt;manager" style="rounded=1;whiteSpace=wrap;html=1;" vertex="1" parent="1">
          <mxGeometry x="1400" y="170" width="120" height="60" as="geometry" />
        </mxCell>
        <mxCell id="WztenFOhFq88HhkXIFKB-23" value="bingContext" style="rounded=1;whiteSpace=wrap;html=1;" vertex="1" parent="1">
          <mxGeometry x="300" y="270" width="120" height="60" as="geometry" />
        </mxCell>
        <mxCell id="WztenFOhFq88HhkXIFKB-24" value="bleManager" style="rounded=1;whiteSpace=wrap;html=1;" vertex="1" parent="1">
          <mxGeometry x="340" y="90" width="120" height="60" as="geometry" />
        </mxCell>
        <mxCell id="WztenFOhFq88HhkXIFKB-25" value="wand Manager" style="rounded=1;whiteSpace=wrap;html=1;" vertex="1" parent="1">
          <mxGeometry x="900" y="240" width="120" height="60" as="geometry" />
        </mxCell>
      </root>
    </mxGraphModel>
  </diagram>
</mxfile>
